<svg width="26" height="20" viewBox="0 0 26 20" fill="none" xmlns="http://www.w3.org/2000/svg">
<path fill-rule="evenodd" clip-rule="evenodd" d="M19.0105 1.00375L15.8923 1C12.3893 1 10.1254 2.73871 10.1254 5.42982V7.47227H6.99029C6.71938 7.47227 6.5 7.63668 6.5 7.83949V10.7988C6.5 11.0016 6.71963 11.1658 6.99029 11.1658H10.1254V18.633C10.1254 18.8358 10.3448 19 10.6157 19H14.7061C14.9771 19 15.1964 18.8356 15.1964 18.633V11.1658H18.8621C19.133 11.1658 19.3524 11.0016 19.3524 10.7988L19.3539 7.83949C19.3539 7.74211 19.3021 7.64886 19.2103 7.57994C19.1185 7.51103 18.9934 7.47227 18.8634 7.47227H15.1964V5.74086C15.1964 4.90868 15.4613 4.48622 16.9095 4.48622L19.01 4.48566C19.2806 4.48566 19.5 4.32124 19.5 4.11863V1.37077C19.5 1.16835 19.2809 1.00412 19.0105 1.00375Z" fill="white"/>
</svg>
